PathFileType	4	(X/Y/Z)	/Users/itak/Documents/Research/Walk-IL/dataset/trc/00479_00167.trc
DataRate	CameraRate	NumFrames	NumMarkers	Units	OrigDataRate	OrigDataStartFrame	OrigNumFrames
100.000000	100.000000	4	53	mm	100.000000	453	605
Frame#	Time	RPSI			LPSI			L3			STRN			T10			C7			CLAV			RBAK			LBAK			LSHO			LUPA			LAEL			LAOL			LWTS			LWPS			LFRA			LIFD			LHPS			LHTS			RSHO			RUPA			RAEL			RAOL			RWTS			RWPS			RFRA			RIFD			RHTS			RHPS			RBHD			LFHD			RFHD			LBHD			LHIP			RHIP			RASI			LASI			LKNE			LTHI			LANK			LTIP			LTOE			LMT1			LMT5			LHEE			RKNE			RTHI			RANK			RTIP			RTOE			RMT1			RMT5			RHEE			
		X1	Y1	Z1	X2	Y2	Z2	X3	Y3	Z3	X4	Y4	Z4	X5	Y5	Z5	X6	Y6	Z6	X7	Y7	Z7	X8	Y8	Z8	X9	Y9	Z9	X10	Y10	Z10	X11	Y11	Z11	X12	Y12	Z12	X13	Y13	Z13	X14	Y14	Z14	X15	Y15	Z15	X16	Y16	Z16	X17	Y17	Z17	X18	Y18	Z18	X19	Y19	Z19	X20	Y20	Z20	X21	Y21	Z21	X22	Y22	Z22	X23	Y23	Z23	X24	Y24	Z24	X25	Y25	Z25	X26	Y26	Z26	X27	Y27	Z27	X28	Y28	Z28	X29	Y29	Z29	X30	Y30	Z30	X31	Y31	Z31	X32	Y32	Z32	X33	Y33	Z33	X34	Y34	Z34	X35	Y35	Z35	X36	Y36	Z36	X37	Y37	Z37	X38	Y38	Z38	X39	Y39	Z39	X40	Y40	Z40	X41	Y41	Z41	X42	Y42	Z42	X43	Y43	Z43	X44	Y44	Z44	X45	Y45	Z45	X46	Y46	Z46	X47	Y47	Z47	X48	Y48	Z48	X49	Y49	Z49	X50	Y50	Z50	X51	Y51	Z51	X52	Y52	Z52	X53	Y53	Z53	

454	4.53	-13.8009614944458	962.47998046875	-467.8758239746094	-10.36011409759521	949.3900146484375	-325.6602478027344	-32.89723968505859	1058.3935546875	-420.3429565429688	-321.5807189941406	1239.56982421875	-416.8467712402344	-31.97122001647949	1181.8720703125	-429.16943359375	-110.5488128662109	1442.333984375	-473.6277465820312	-290.14306640625	1353.610595703125	-433.2471008300781	-49.47610092163086	1308.779907226562	-551.2989501953125	-67.13568878173828	1411.92724609375	-372.9810791015625	-163.5130310058594	1443.23583984375	-289.6628723144531	-135.9010620117188	1339.97802734375	-178.1578674316406	-140.6708068847656	1128.344848632812	-117.1297760009766	-70.09254455566406	1108.759643554688	-189.9573822021484	-212.0865783691406	915.2059936523438	-131.0885467529297	-161.8863220214844	911.3121948242188	-75.69659423828125	-156.1981658935547	1041.861328125	-94.83731079101562	-188.8590240478516	756.28466796875	-112.7208938598633	-156.0323028564453	832.35791015625	-71.15410614013672	-212.5830383300781	827.276123046875	-116.6145477294922	-182.6513061523438	1385.208862304688	-619.74609375	-165.2296752929688	1317.959716796875	-687.3930053710938	-155.4371948242188	1032.147583007812	-731.5086669921875	-104.6345443725586	1017.705383300781	-688.7609252929688	-255.3594360351562	827.1904907226562	-680.6563110351562	-189.1860656738281	812.0859375	-737.3507690429688	-157.8504333496094	973.6898803710938	-739.4322509765625	-251.9853820800781	670.9185180664062	-680.900634765625	-269.4838256835938	729.8920288085938	-685.2411499023438	-203.0811920166016	725.1478271484375	-730.5007934570312	-257.6355590820312	1620.26123046875	-581.8369750976562	-374.0503234863281	1613.496459960938	-410.1745910644531	-387.6551208496094	1596.394165039062	-538.93212890625	-226.1686401367188	1652.26025390625	-409.9683532714844	-147.0777587890625	842.470458984375	-206.8849487304688	-134.9825897216797	864.2277221679688	-606.9359130859375	-237.9417266845703	900.9268188476562	-538.3011474609375	-242.3167877197266	888.8555297851562	-282.751953125	-222.5392303466797	433.288818359375	-212.8168334960938	-238.5826873779297	586.7776489257812	-201.4681701660156	147.5877685546875	212.2524108886719	-210.6735229492188	-99.29806518554688	331.4136962890625	-196.1701965332031	10.82172203063965	41.29386138916016	-293.1169128417969	56.06948089599609	99.86841583251953	-315.3979187011719	59.91554260253906	89.96390533447266	-205.3323364257812	165.0652160644531	256.2239074707031	-272.7943420410156	-178.1073760986328	469.2720642089844	-576.4970092773438	-185.8130187988281	731.6801147460938	-613.6156616210938	-177.9092102050781	37.22370147705078	-569.7323608398438	-195.34326171875	327.22314453125	-583.351318359375	-382.5090637207031	56.11051940917969	-496.0821228027344	-316.3340759277344	52.62115478515625	-468.3179626464844	-312.5802917480469	44.57191467285156	-575.2430419921875	-108.1511993408203	28.70612144470215	-533.1432495117188	
455	4.54	-19.72966003417969	962.4822387695312	-469.4812316894531	-16.31539344787598	949.8992309570312	-327.2100219726562	-38.03568267822266	1059.147338867188	-422.3634948730469	-327.2457580566406	1240.065063476562	-418.3830261230469	-37.86713409423828	1182.804077148438	-431.1520385742188	-116.8346862792969	1443.064575195312	-475.7159423828125	-295.9369812011719	1354.104858398438	-434.9185180664062	-55.34236145019531	1309.754150390625	-553.301025390625	-73.03412628173828	1412.74755859375	-375.1111450195312	-169.216552734375	1443.887939453125	-291.6336669921875	-141.1213684082031	1340.933959960938	-180.0249786376953	-145.3361663818359	1129.796875	-117.8435668945312	-75.13196563720703	1109.837524414062	-190.9322357177734	-216.4420318603516	916.6729125976562	-130.117919921875	-165.9142456054688	913.2073974609375	-74.98265838623047	-160.5809936523438	1043.423461914062	-95.03018188476562	-194.1707916259766	758.0152587890625	-109.5644226074219	-160.4439697265625	834.450927734375	-69.43944549560547	-217.3199462890625	829.1137084960938	-114.4828033447266	-189.0209045410156	1385.604370117188	-621.7333984375	-171.5579528808594	1318.265502929688	-689.3284912109375	-160.8847961425781	1032.217163085938	-732.4832763671875	-109.7458190917969	1018.084411621094	-690.0233154296875	-260.2363586425781	827.638427734375	-680.2159423828125	-194.4379425048828	812.2642822265625	-737.3199462890625	-163.2276153564453	973.70703125	-740.1312255859375	-258.0042724609375	671.3845825195312	-681.2178955078125	-275.0930480957031	730.5526733398438	-685.1905517578125	-208.9281463623047	725.4575805664062	-730.773681640625	-265.0943603515625	1620.177001953125	-583.8477172851562	-381.365234375	1613.072265625	-411.978515625	-394.9910278320312	1595.517211914062	-540.7249755859375	-233.7317352294922	1652.806396484375	-412.0545043945312	-153.7780609130859	844.2791748046875	-207.9636993408203	-140.7253265380859	864.1220703125	-608.3347778320312	-243.9166107177734	901.0946655273438	-540.1898193359375	-248.0768585205078	890.2923583984375	-284.7796630859375	-236.7655334472656	436.6005554199219	-211.6204223632812	-249.8753356933594	590.4769287109375	-200.5975189208984	129.9830627441406	209.7920837402344	-216.2993316650391	-114.4712066650391	333.1012573242188	-196.9857330322266	-15.68336868286133	42.22251510620117	-290.55615234375	31.03274917602539	98.45073699951172	-315.5723571777344	37.9654541015625	91.26553344726562	-205.6432037353516	147.4681091308594	251.7762603759766	-279.8813781738281	-181.0970153808594	469.2526550292969	-577.182861328125	-190.9573669433594	731.4963989257812	-614.6015625	-177.9218902587891	37.22372055053711	-569.7327270507812	-197.2878875732422	327.0479431152344	-583.8864135742188	-382.5205993652344	55.90533065795898	-496.10009765625	-316.3857727050781	52.5509033203125	-468.3575744628906	-312.6092529296875	44.52571487426758	-575.3197021484375	-108.1749420166016	28.75514984130859	-533.127685546875	
456	4.55	-25.68554878234863	962.56689453125	-470.9714050292969	-22.33424186706543	950.4893188476562	-328.6728210449219	-43.29817199707031	1060.004638671875	-424.3016662597656	-332.8679809570312	1240.597534179688	-419.8890686035156	-43.61704635620117	1183.723266601562	-433.0929565429688	-123.0409393310547	1443.802978515625	-477.6508178710938	-301.6578063964844	1354.629028320312	-436.50439453125	-61.15322494506836	1310.749389648438	-555.189453125	-78.8868408203125	1413.551879882812	-377.105224609375	-174.8851013183594	1444.532836914062	-293.4830322265625	-146.3492431640625	1341.909790039062	-181.7649383544922	-149.9175720214844	1131.225830078125	-118.564567565918	-80.17805480957031	1110.875	-191.9828643798828	-220.9380187988281	918.26513671875	-128.9984741210938	-169.90869140625	915.1181030273438	-74.32648468017578	-164.8902130126953	1044.96826171875	-95.23886108398438	-200.0507965087891	759.8531494140625	-106.0275344848633	-164.9841918945312	836.6130981445312	-67.70753479003906	-222.388427734375	831.1290893554688	-112.0700607299805	-195.2701416015625	1386.093139648438	-623.5880737304688	-177.7308959960938	1318.70068359375	-691.15869140625	-166.2573547363281	1032.431762695312	-733.3903198242188	-114.8717880249023	1018.523620605469	-691.1447143554688	-265.1937561035156	828.1958618164062	-679.880126953125	-199.6962432861328	812.5843505859375	-737.285888671875	-168.5458221435547	973.8560791015625	-740.7722778320312	-263.9567565917969	671.9479370117188	-681.6021728515625	-280.6297607421875	731.257080078125	-685.263671875	-214.6765747070312	725.9214477539062	-731.05419921875	-272.6597595214844	1620.200805664062	-585.4744262695312	-388.5854187011719	1612.461059570312	-413.30078125	-402.3634643554688	1594.614135742188	-542.020263671875	-241.2490234375	1653.287353515625	-413.7552185058594	-160.46533203125	846.144287109375	-208.9174957275391	-146.4132232666016	864.0039672851562	-609.6339721679688	-249.8851776123047	901.21142578125	-541.9943237304688	-253.8401336669922	891.70849609375	-286.7959899902344	-250.7027282714844	439.8809204101562	-210.4085388183594	-261.0467224121094	594.2221069335938	-199.7483367919922	111.6306991577148	206.0530242919922	-221.7182922363281	-129.7723693847656	334.2910461425781	-197.7871398925781	-42.88691329956055	42.89751052856445	-288.123046875	5.286516189575195	96.61084747314453	-315.6727600097656	15.21933460235596	91.76073455810547	-206.0505218505859	129.2300415039062	246.0806732177734	-286.6434020996094	-184.1663665771484	469.2243347167969	-577.81884765625	-196.020751953125	731.2969970703125	-615.5281372070312	-177.9389190673828	37.22188949584961	-569.73876953125	-199.3017120361328	326.8687438964844	-584.3816528320312	-382.5640869140625	55.63840103149414	-496.1075439453125	-316.4479370117188	52.48173141479492	-468.3993835449219	-312.6497497558594	44.47171783447266	-575.4105224609375	-108.2187957763672	28.80752754211426	-533.1107788085938	
457	4.56	-31.66124725341797	962.7340698242188	-472.3419189453125	-28.39840316772461	951.1103515625	-330.0430603027344	-48.75018310546875	1060.888427734375	-426.1293029785156	-338.4588012695312	1241.160766601562	-421.3585815429688	-49.22888946533203	1184.594116210938	-434.9678955078125	-129.1707763671875	1444.535400390625	-479.4375915527344	-307.317138671875	1355.176635742188	-437.9998168945312	-66.93423461914062	1311.737670898438	-556.9686889648438	-84.68931579589844	1414.313598632812	-378.9708251953125	-180.5078430175781	1445.154296875	-295.2105102539062	-151.5745544433594	1342.884887695312	-183.3777770996094	-154.4319305419922	1132.61474609375	-119.2890167236328	-85.22962188720703	1111.855590820312	-193.0870819091797	-225.5863037109375	919.9501953125	-127.7714920043945	-173.9195709228516	917.0070190429688	-73.73914337158203	-169.1587371826172	1046.47705078125	-95.45604705810547	-206.3851928710938	761.7826538085938	-102.2749710083008	-169.6659240722656	838.7978515625	-66.00725555419922	-227.7592315673828	833.27685546875	-109.4670028686523	-201.4131927490234	1386.66748046875	-625.3116455078125	-183.7635040283203	1319.255615234375	-692.8912353515625	-171.5696105957031	1032.767944335938	-734.239501953125	-120.0192184448242	1019.020935058594	-692.1343383789062	-270.23583984375	828.8422241210938	-679.6666870117188	-204.9529418945312	813.013671875	-737.2521362304688	-173.8139190673828	974.1232299804688	-741.3688354492188	-269.8270568847656	672.59716796875	-681.9730224609375	-286.1069030761719	731.9917602539062	-685.4116821289062	-220.30712890625	726.4991455078125	-731.2991333007812	-280.3329772949219	1620.314819335938	-586.716796875	-395.6954650878906	1611.677490234375	-414.1492919921875	-409.7573547363281	1593.69287109375	-542.8281860351562	-248.7023468017578	1653.694091796875	-415.0793762207031	-167.1459655761719	848.0020751953125	-209.7753143310547	-152.0491333007812	863.8916015625	-610.8350830078125	-255.8341674804688	901.2845458984375	-543.7041625976562	-259.6148986816406	893.0803833007812	-288.7670288085938	-264.361083984375	443.0803833007812	-209.2203979492188	-272.0924377441406	597.95654296875	-198.9589538574219	92.50331878662109	201.0753631591797	-226.8361053466797	-145.2108306884766	334.9777221679688	-198.5594482421875	-70.73226165771484	43.35605621337891	-285.802001953125	-21.06144714355469	94.37721252441406	-315.7443237304688	-8.288110733032227	91.45339202880859	-206.5255126953125	110.3084106445312	239.2001342773438	-292.9726867675781	-187.31689453125	469.1875305175781	-578.4057006835938	-201.0280303955078	731.0823364257812	-616.3907470703125	-177.9600219726562	37.22125244140625	-569.744873046875	-201.3804626464844	326.6813049316406	-584.8329467773438	-382.6458129882812	55.30980682373047	-496.1048583984375	-316.5235900878906	52.41338729858398	-468.4357299804688	-312.702880859375	44.41080856323242	-575.5143432617188	-108.2862167358398	28.86119651794434	-533.0859375	
